<svg xmlns="http://www.w3.org/2000/svg" viewBox="0 0 64 64">
  <defs>
    <linearGradient id="g" x1="0%" y1="0%" x2="100%" y2="100%">
      <stop offset="0%" stop-color="#7C3AED"/>
      <stop offset="100%" stop-color="#A855F7"/>
    </linearGradient>
  </defs>
  <rect width="64" height="64" rx="14" fill="url(#g)"/>
  <path fill-rule="evenodd" transform="scale(0.8) translate(8 8)" d="M22 16h22c10 0 17 6 17 14 0 5-3 9-7 11 5 2 9 7 9 13 0 8-7 14-17 14H22V16zm10 8v10h12c4 0 6-2 6-5s-2-5-6-5H32zm0 18v12h14c4 0 7-2 7-6s-3-6-7-6H32z" fill="#FFFFFF"/>
  <circle cx="50" cy="16" r="3.5" fill="#EC4899"/>
</svg>
