<svg xmlns="http://www.w3.org/2000/svg" viewBox="0 0 320 80" width="320" height="80">
  <defs>
    <linearGradient id="brandGrad2" x1="0%" y1="0%" x2="100%" y2="100%">
      <stop offset="0%" stop-color="#7C3AED"/>
      <stop offset="100%" stop-color="#A855F7"/>
    </linearGradient>
    <linearGradient id="sparkGrad2" x1="0%" y1="0%" x2="100%" y2="100%">
      <stop offset="0%" stop-color="#EC4899"/>
      <stop offset="100%" stop-color="#F472B6"/>
    </linearGradient>
  </defs>
  <!-- MARK -->
  <rect width="80" height="80" rx="18" fill="url(#brandGrad2)"/>
  <rect x="2" y="2" width="76" height="76" rx="16" fill="none" stroke="rgba(255,255,255,0.08)" stroke-width="1"/>
  <path fill-rule="evenodd" d="M22 16h22c10 0 17 6 17 14 0 5-3 9-7 11 5 2 9 7 9 13 0 8-7 14-17 14H22V16zm10 8v10h12c4 0 6-2 6-5s-2-5-6-5H32zm0 18v12h14c4 0 7-2 7-6s-3-6-7-6H32z" fill="#FFFFFF"/>
  <circle cx="62" cy="20" r="4" fill="url(#sparkGrad2)"/>

  <!-- WORDMARK -->
  <text x="100" y="50" font-family="'Space Grotesk', system-ui, sans-serif" font-size="34" font-weight="700" fill="#F8F8FC" letter-spacing="-0.02em">Barkar</text>
  <circle cx="208" cy="48" r="5" fill="#EC4899"/>

  <!-- Tagline -->
  <text x="100" y="68" font-family="'Inter', system-ui, sans-serif" font-size="10" font-weight="500" fill="#A855F7" letter-spacing="0.18em">BUILT DIFFERENT.</text>
</svg>
