<svg xmlns="http://www.w3.org/2000/svg" viewBox="0 0 320 80" width="320" height="80">
  <rect x="1" y="1" width="78" height="78" rx="17" fill="none" stroke="#0A0118" stroke-width="2"/>
  <path fill-rule="evenodd" d="M22 16h22c10 0 17 6 17 14 0 5-3 9-7 11 5 2 9 7 9 13 0 8-7 14-17 14H22V16zm10 8v10h12c4 0 6-2 6-5s-2-5-6-5H32zm0 18v12h14c4 0 7-2 7-6s-3-6-7-6H32z" fill="#0A0118"/>
  <circle cx="62" cy="20" r="3" fill="#0A0118"/>
  <text x="100" y="50" font-family="'Space Grotesk', system-ui, sans-serif" font-size="34" font-weight="700" fill="#0A0118" letter-spacing="-0.02em">Barkar</text>
  <circle cx="208" cy="48" r="5" fill="#0A0118"/>
  <text x="100" y="68" font-family="'Inter', system-ui, sans-serif" font-size="10" font-weight="500" fill="#0A0118" opacity="0.7" letter-spacing="0.18em">BUILT DIFFERENT.</text>
</svg>
